<svg xmlns="http://www.w3.org/2000/svg" fill="none" viewBox="0 0 24 24" id="Language--Streamline-Rounded-Material" height="24" width="24">
  <desc>
    Language Streamline Icon: https://streamlinehq.com
  </desc>
  <path fill="#000000" d="M12 22c-1.4 0 -2.70835 -0.2625 -3.925 -0.7875 -1.21665 -0.525 -2.275 -1.2375 -3.175 -2.1375 -0.9 -0.9 -1.608335 -1.9625 -2.125 -3.1875C2.258335 14.6625 2 13.35 2 11.95s0.258335 -2.70415 0.775 -3.9125C3.291665 6.82915 4 5.775 4.9 4.875c0.9 -0.9 1.95835 -1.604165 3.175 -2.1125C9.29165 2.254165 10.6 2 12 2s2.70835 0.254165 3.925 0.7625S18.2 3.975 19.1 4.875c0.9 0.9 1.60835 1.95415 2.125 3.1625S22 10.55 22 11.95s-0.25835 2.7125 -0.775 3.9375S20 18.175 19.1 19.075c-0.9 0.9 -1.95835 1.6125 -3.175 2.1375C14.70835 21.7375 13.4 22 12 22Zm0 -1.45c0.58335 -0.6 1.07085 -1.2875 1.4625 -2.0625 0.39165 -0.775 0.7125 -1.69585 0.9625 -2.7625H9.6c0.23335 1 0.54585 1.9 0.9375 2.7 0.39165 0.8 0.87915 1.50835 1.4625 2.125Zm-2.125 -0.3c-0.41665 -0.63335 -0.775 -1.31665 -1.075 -2.05 -0.3 -0.73335 -0.55 -1.55835 -0.75 -2.475H4.3c0.633335 1.18335 1.36665 2.1125 2.2 2.7875 0.83335 0.675 1.95835 1.25415 3.375 1.7375Zm4.275 -0.025c1.2 -0.38335 2.27915 -0.95835 3.2375 -1.725 0.95835 -0.76665 1.72915 -1.69165 2.3125 -2.775h-3.725c-0.21665 0.9 -0.47085 1.71665 -0.7625 2.45 -0.29165 0.73335 -0.64585 1.41665 -1.0625 2.05Zm-10.35 -6h3.975c-0.05 -0.45 -0.07915 -0.85415 -0.0875 -1.2125 -0.00835 -0.35835 -0.0125 -0.7125 -0.0125 -1.0625 0 -0.41665 0.00835 -0.7875 0.025 -1.1125 0.01665 -0.325 0.05 -0.6875 0.1 -1.0875h-4c-0.116665 0.4 -0.195835 0.75835 -0.2375 1.075C3.520835 11.14165 3.5 11.51665 3.5 11.95s0.020835 0.82085 0.0625 1.1625c0.041665 0.34165 0.120835 0.7125 0.2375 1.1125Zm5.525 0H14.7c0.06665 -0.51665 0.10835 -0.9375 0.125 -1.2625 0.01665 -0.325 0.025 -0.6625 0.025 -1.0125 0 -0.33335 -0.00835 -0.65415 -0.025 -0.9625s-0.05835 -0.72085 -0.125 -1.2375H9.325c-0.06665 0.51665 -0.10835 0.92915 -0.125 1.2375 -0.01665 0.30835 -0.025 0.62915 -0.025 0.9625 0 0.35 0.00835 0.6875 0.025 1.0125 0.01665 0.325 0.05835 0.74585 0.125 1.2625Zm6.875 0h4c0.11665 -0.4 0.19585 -0.77085 0.2375 -1.1125 0.04165 -0.34165 0.0625 -0.72915 0.0625 -1.1625 0 -0.43335 -0.02085 -0.80835 -0.0625 -1.125s-0.12085 -0.675 -0.2375 -1.075h-3.975c0.05 0.58335 0.08335 1.02915 0.1 1.3375 0.01665 0.30835 0.025 0.59585 0.025 0.8625 0 0.36665 -0.0125 0.7125 -0.0375 1.0375 -0.025 0.325 -0.0625 0.7375 -0.1125 1.2375Zm-0.25 -5.975h3.75c-0.55 -1.15 -1.30415 -2.10835 -2.2625 -2.875 -0.95835 -0.766665 -2.0625 -1.308335 -3.3125 -1.625 0.41665 0.616665 0.77085 1.28335 1.0625 2 0.29165 0.71665 0.54585 1.55 0.7625 2.5Zm-6.35 0h4.85c-0.18335 -0.88335 -0.49165 -1.7375 -0.925 -2.5625C13.09165 4.8625 12.58335 4.133335 12 3.5c-0.53335 0.45 -0.98335 1.041665 -1.35 1.775 -0.36665 0.73335 -0.71665 1.725 -1.05 2.975Zm-5.3 0h3.775c0.18335 -0.9 0.41665 -1.70415 0.7 -2.4125 0.28335 -0.70835 0.64165 -1.395835 1.075 -2.0625 -1.25 0.316665 -2.34165 0.85 -3.275 1.6 -0.93335 0.75 -1.691665 1.70835 -2.275 2.875Z" stroke-width="0.5"></path>
</svg>